<svg data-v-423bf9ae="" xmlns="http://www.w3.org/2000/svg" viewBox="0 0 849 112" class="iconLeft"><!----><!----><!----><g data-v-423bf9ae="" id="5e97ab58-cc7a-46e8-bca4-dc1c6aa1fe58" fill="black" transform="matrix(5.71973320392212,0,0,5.71973320392212,113.99303636451805,6.737448308097278)"><path d="M6.52 10.85L7.41 13.58L9.79 13.58L6.34 3.92L3.63 3.92L0.14 13.58L2.48 13.58L3.37 10.85ZM4.96 5.82L5.98 9.13L3.92 9.13ZM15.16 5.92C14.41 5.92 13.66 6.09 13.24 6.41L12.68 7.24L12.68 3.29L10.49 3.29L10.49 13.58L12.68 13.58L12.68 12.60L13.17 13.38C13.55 13.62 14.29 13.78 14.91 13.78C16.83 13.78 18.47 12.38 18.47 9.69C18.47 7.49 17.22 5.92 15.16 5.92ZM14.39 12.26C13.55 12.26 12.68 11.70 12.68 10.09L12.68 9.76C12.68 8.05 13.45 7.43 14.46 7.43C15.50 7.43 16.21 8.36 16.21 9.83C16.21 11.45 15.46 12.26 14.39 12.26ZM23.13 5.92C20.65 5.92 19.19 7.52 19.19 9.84C19.19 12.17 20.65 13.78 23.13 13.78C25.59 13.78 27.06 12.17 27.06 9.84C27.06 7.52 25.59 5.92 23.13 5.92ZM23.13 12.26C22.08 12.26 21.45 11.40 21.45 9.84C21.45 8.29 22.08 7.43 23.13 7.43C24.16 7.43 24.79 8.29 24.79 9.84C24.79 11.40 24.16 12.26 23.13 12.26ZM30.38 3.29L28.18 3.29L28.18 11.07C28.18 11.59 28.18 11.96 28.21 12.32C28.27 13.30 28.88 13.71 29.93 13.71C30.42 13.71 30.83 13.68 31.25 13.64L31.25 12.14C30.59 12.17 30.44 12.05 30.39 11.72C30.38 11.52 30.38 11.35 30.38 11.03ZM36.85 13.58L38.99 13.58C38.88 12.75 38.85 12.25 38.85 11.69L38.85 9.42C38.85 8.99 38.84 8.57 38.81 8.22C38.70 6.89 37.90 5.92 35.69 5.92C33.87 5.92 32.42 6.89 32.38 8.60L34.48 8.60C34.54 7.85 34.92 7.43 35.60 7.43C36.26 7.43 36.60 7.80 36.64 8.25C36.67 8.50 36.67 8.69 36.67 8.89L36.67 9.02L36.19 9.02C33.56 9.02 32.12 9.97 32.12 11.59C32.12 13.01 33.25 13.78 34.51 13.78C35.20 13.78 35.83 13.62 36.36 13.29L36.69 12.49ZM35.38 12.26C34.78 12.26 34.37 11.97 34.37 11.41C34.37 10.54 35.31 10.21 36.67 10.32L36.67 10.86C36.67 11.79 36.04 12.26 35.38 12.26ZM48.03 3.29L45.84 3.29L45.84 7.10L45.35 6.31C44.97 6.08 44.23 5.92 43.61 5.92C41.69 5.92 40.05 7.32 40.05 10.00C40.05 12.21 41.30 13.78 43.36 13.78C44.11 13.78 44.86 13.61 45.28 13.29L45.84 12.46L45.84 13.58L48.03 13.58ZM44.06 12.26C43.02 12.26 42.31 11.34 42.31 9.87C42.31 8.25 43.06 7.43 44.13 7.43C44.95 7.43 45.84 7.99 45.84 9.59L45.84 9.94C45.84 11.65 45.05 12.26 44.06 12.26ZM56.71 9.72C56.71 7.73 55.48 5.92 53.10 5.92C50.74 5.92 49.24 7.63 49.24 9.87C49.24 12.50 50.88 13.78 52.96 13.78C54.78 13.78 56.18 12.87 56.59 11.14L54.42 11.14C54.29 11.84 53.77 12.26 53.00 12.26C52.18 12.26 51.56 11.84 51.44 10.42L56.67 10.42C56.70 10.15 56.71 9.91 56.71 9.72ZM53.00 7.43C53.82 7.43 54.31 7.98 54.43 9.03L51.49 9.03C51.67 7.92 52.22 7.43 53.00 7.43ZM65.41 8.55L65.41 10.26L67.37 10.26C67.12 11.49 66.33 12.15 65.21 12.15C63.84 12.15 62.75 11.10 62.75 8.68C62.75 6.54 63.83 5.35 65.24 5.35C66.42 5.35 67.10 5.95 67.33 7.07L67.35 7.21L69.54 7.21L69.52 7.07C69.33 5.17 67.96 3.72 65.27 3.72C62.59 3.72 60.44 5.56 60.44 8.81C60.44 11.96 62.19 13.78 64.82 13.78C65.87 13.78 66.57 13.57 67.12 13.06L67.55 12.05L67.72 13.58L69.45 13.58L69.45 8.55ZM75.11 5.92C74.68 5.92 74.13 6.12 73.75 6.51L73.19 7.55L73.19 6.12L70.99 6.12L70.99 13.58L73.19 13.58L73.19 10.46C73.19 8.34 73.93 7.64 75.67 7.76L75.67 5.98C75.50 5.95 75.35 5.92 75.11 5.92ZM83.54 9.72C83.54 7.73 82.31 5.92 79.93 5.92C77.56 5.92 76.06 7.63 76.06 9.87C76.06 12.50 77.70 13.78 79.79 13.78C81.61 13.78 83.01 12.87 83.41 11.14L81.24 11.14C81.12 11.84 80.60 12.26 79.83 12.26C79.00 12.26 78.39 11.84 78.26 10.42L83.50 10.42C83.52 10.15 83.54 9.91 83.54 9.72ZM79.83 7.43C80.64 7.43 81.13 7.98 81.26 9.03L78.32 9.03C78.50 7.92 79.04 7.43 79.83 7.43ZM89.11 13.58L91.25 13.58C91.14 12.75 91.11 12.25 91.11 11.69L91.11 9.42C91.11 8.99 91.10 8.57 91.07 8.22C90.96 6.89 90.16 5.92 87.95 5.92C86.13 5.92 84.69 6.89 84.64 8.60L86.74 8.60C86.80 7.85 87.18 7.43 87.86 7.43C88.52 7.43 88.86 7.80 88.90 8.25C88.93 8.50 88.93 8.69 88.93 8.89L88.93 9.02L88.45 9.02C85.82 9.02 84.38 9.97 84.38 11.59C84.38 13.01 85.51 13.78 86.77 13.78C87.46 13.78 88.09 13.62 88.62 13.29L88.96 12.49ZM87.64 12.26C87.04 12.26 86.63 11.97 86.63 11.41C86.63 10.54 87.57 10.21 88.93 10.32L88.93 10.86C88.93 11.79 88.30 12.26 87.64 12.26ZM95.41 7.57L96.99 7.57L96.99 6.17L95.41 6.17L95.41 4.30L93.21 4.30L93.21 6.17L92.08 6.17L92.08 7.57L93.21 7.57L93.21 11.00C93.21 11.42 93.21 11.76 93.24 12.14C93.32 13.23 93.86 13.76 95.49 13.76C95.97 13.76 96.40 13.72 96.85 13.65L96.85 12.25C95.73 12.32 95.48 12.15 95.42 11.41C95.41 11.21 95.41 10.96 95.41 10.71ZM105.27 7.98C105.10 6.68 104.19 5.92 102.62 5.92C101.92 5.92 101.39 6.06 100.88 6.40L100.27 7.29L100.27 6.12L98.07 6.12L98.07 13.58L100.27 13.58L100.27 10.12C100.27 8.22 100.91 7.43 101.78 7.43C102.63 7.43 103.05 7.91 103.11 8.67C103.14 9.04 103.14 9.42 103.14 9.70L103.14 13.58L105.34 13.58L105.34 9.37C105.34 8.76 105.32 8.36 105.27 7.98ZM113.92 9.72C113.92 7.73 112.69 5.92 110.31 5.92C107.94 5.92 106.44 7.63 106.44 9.87C106.44 12.50 108.08 13.78 110.17 13.78C111.99 13.78 113.39 12.87 113.79 11.14L111.62 11.14C111.50 11.84 110.98 12.26 110.21 12.26C109.38 12.26 108.77 11.84 108.64 10.42L113.88 10.42C113.90 10.15 113.92 9.91 113.92 9.72ZM110.21 7.43C111.02 7.43 111.51 7.98 111.64 9.03L108.70 9.03C108.88 7.92 109.42 7.43 110.21 7.43ZM117.99 5.92C116.12 5.92 114.88 6.82 114.88 8.27C114.88 9.55 115.79 10.18 117.19 10.53C118.51 10.84 118.99 11.13 118.99 11.66C118.99 12.14 118.57 12.36 118.03 12.36C117.42 12.36 116.91 11.98 116.76 11.28L114.59 11.28C114.79 12.96 116.12 13.78 118.02 13.78C119.77 13.78 121.18 13.05 121.18 11.49C121.18 10.09 120.26 9.49 118.82 9.13C117.49 8.79 117.08 8.51 117.08 8.01C117.08 7.62 117.38 7.32 117.85 7.32C118.40 7.32 118.72 7.67 118.85 8.29L121.02 8.29C120.83 6.93 119.80 5.92 117.99 5.92ZM125.15 5.92C123.27 5.92 122.04 6.82 122.04 8.27C122.04 9.55 122.95 10.18 124.35 10.53C125.66 10.84 126.14 11.13 126.14 11.66C126.14 12.14 125.72 12.36 125.19 12.36C124.57 12.36 124.07 11.98 123.91 11.28L121.74 11.28C121.94 12.96 123.27 13.78 125.17 13.78C126.92 13.78 128.34 13.05 128.34 11.49C128.34 10.09 127.41 9.49 125.97 9.13C124.64 8.79 124.24 8.51 124.24 8.01C124.24 7.62 124.53 7.32 125.01 7.32C125.55 7.32 125.87 7.67 126 8.29L128.17 8.29C127.99 6.93 126.95 5.92 125.15 5.92Z"></path></g><!----><g data-v-423bf9ae="" id="fd0e45ce-62b8-41c3-aa25-61ee514f3ad9" transform="matrix(1.1111092461480034,0,0,1.1111092461480034,0.6030509167867351,0.44464066261534896)" stroke="none" fill="black"><path d="M67.83 64.129c.028-2.929.017-9.357-.493-15.71.045 2.677.115 5.127.206 6.409.051.735.163 4.585.287 9.301zM43.334 9.037c.087-2.058-.024-4.262 1.72-4.136.837.061 2.279.274 4.063.631 1.978.396 1.699 11.121 1.699 11.121l7.171 2.788c.236-7.761-1.704-16.773-3.64-17.325-3.244-.925-8.005-2.854-12.736-1.819-3.161.691-4.007 12.296-4.007 12.296l5.532 1.449s.058-1.712.198-5.005zM9.969 48.267c1.165.431 3.085 1.064 5.358 1.777 1.699-4.705 4.58-8.294 4.58-8.294s.665-1.743 4.006-1.041c3.341.701 3.497 2.226 3.497 2.226s-2.164 3.508-4.268 8.236c-.13.292-.301.655-.431 1.102 5.297 1.544 10.415 2.911 11.887 3.045 2.897.265 10.174.583 11.557-6.42 1.364-6.911 2.714-11.127 3.864-13.759.23-.575.437-1.051.589-1.395.313-.708 1.266-2.128 2.652-3.52v-.002c.004-.01.01-.015.018-.017 1.852-1.85 4.472-3.642 7.397-3.631.154 0 .342.019.551.051-1.721-1.914-3.682-3.544-5.77-4.349-.475-.183-17.718-6.998-22.87-6.269l-.419.06.419-.06s-11.811.293-19.621 8.097c-4.08 4.076-7.662 11.388-9.911 18.414-.029 1.783 2.246 4.023 6.915 5.749z"></path><path d="M33.018 60.553c-2.322-.426-6.635-1.608-11.232-2.967-.7 2.769-.105 7.525-.105 7.525s-.904 2.158-4.467 1.369c-3.036-.674-2.958-2.865-2.958-2.865s-.776-4.446-.092-8.359c-4.376-1.378-8.094-2.615-9.462-3.14-1.646-.63-2.833-1.508-3.688-2.489-.063.389-.119 1.96-.172 2.334-3.102 22.092 3.336 31.606 3.792 33.615.613 2.701 12.381 8.364 23.741 12.513 6.59 2.407 13.947 1.94 16.869 1.73l.214-.012c.465-8.542 1.731-30.777 2.352-44.384-.984 4.996-9.233 6.148-14.792 5.13zM67.83 64.129c-.124-4.716-.235-8.564-.287-9.303-.091-1.28-.161-3.73-.206-6.408-.455-5.656-1.913-11.727-3.16-14.882-2.096-5.312-8.183 1.351-9.902 5.546-1.78 4.344-3.465 54.419-3.629 59.383 4.25-1.107 10.338-2.696 11.084-3.867 1.581-2.476 2.438-4.873 2.833-6.914.262-1.359 3.777-2.63 3.777-2.63s-.249-10.8-.474-19.516l-.062.23c0 .002.017-.599.026-1.639z"></path><path d="M83.415 42.354s-.901-10.732-1.105-12.818c-.494-5.037-5.038-21.237-20.526-8.825l4.103 4.476s10.496-9.432 10.892 13.042c.033 1.902.159 4.559 1.303 20.549 1.266 17.679-5.648 17.777-5.648 17.777l.312 7.518s2.568-.672 5.22-1.788c3.753-1.581 7.349-8.198 7.349-17.897-.004-3.838-1.9-22.034-1.9-22.034zM29.176 12.348l3.424-.526V8.924l.659-2.37s-3.162 1.449-4.083 2.897c-.922 1.449-1.318 2.239-1.318 2.897 0 .659 1.318 0 1.318 0z"></path></g><!----></svg>