<?xml version="1.0" encoding="UTF-8"?>
<svg xmlns="http://www.w3.org/2000/svg" xmlns:xlink="http://www.w3.org/1999/xlink" width="144pt" height="144pt" viewBox="0 0 144 144" version="1.1">
<g id="surface1">
<path style=" stroke:none;fill-rule:nonzero;fill:rgb(100%,100%,100%);fill-opacity:1;" d="M 114.488281 92.269531 C 114.535156 88.070312 114.515625 78.847656 113.65625 69.730469 C 113.730469 73.574219 113.847656 77.085938 114.003906 78.925781 C 114.089844 79.980469 114.277344 85.503906 114.488281 92.269531 Z M 73.140625 13.230469 C 73.289062 10.277344 73.101562 7.117188 76.042969 7.296875 C 77.457031 7.382812 79.890625 7.691406 82.902344 8.203125 C 86.242188 8.769531 85.769531 24.15625 85.769531 24.15625 L 97.875 28.15625 C 98.273438 17.023438 94.996094 4.09375 91.730469 3.300781 C 86.253906 1.972656 78.21875 -0.792969 70.234375 0.691406 C 64.898438 1.683594 63.46875 18.332031 63.46875 18.332031 L 72.808594 20.410156 C 72.808594 20.410156 72.90625 17.957031 73.140625 13.230469 Z M 16.824219 69.515625 C 18.792969 70.132812 22.03125 71.039062 25.871094 72.0625 C 28.738281 65.3125 33.601562 60.164062 33.601562 60.164062 C 33.601562 60.164062 34.722656 57.664062 40.363281 58.671875 C 46 59.675781 46.265625 61.863281 46.265625 61.863281 C 46.265625 61.863281 42.609375 66.898438 39.058594 73.679688 C 38.839844 74.097656 38.550781 74.621094 38.332031 75.261719 C 47.273438 77.476562 55.910156 79.4375 58.394531 79.628906 C 63.285156 80.011719 75.570312 80.464844 77.902344 70.417969 C 80.207031 60.503906 82.484375 54.457031 84.425781 50.679688 C 84.8125 49.855469 85.164062 49.171875 85.417969 48.679688 C 85.949219 47.664062 87.554688 45.625 89.894531 43.628906 L 89.894531 43.625 C 89.902344 43.609375 89.914062 43.601562 89.925781 43.601562 C 93.050781 40.945312 97.472656 38.375 102.410156 38.390625 C 102.671875 38.390625 102.988281 38.417969 103.339844 38.464844 C 100.4375 35.71875 97.125 33.378906 93.601562 32.226562 C 92.800781 31.960938 63.695312 22.183594 55 23.230469 L 54.292969 23.316406 L 55 23.230469 C 55 23.230469 35.066406 23.652344 21.882812 34.847656 C 14.996094 40.695312 8.949219 51.1875 5.152344 61.265625 C 5.105469 63.824219 8.945312 67.039062 16.824219 69.515625 Z M 16.824219 69.515625 "/>
<path style=" stroke:none;fill-rule:nonzero;fill:rgb(100%,100%,100%);fill-opacity:1;" d="M 55.730469 87.140625 C 51.808594 86.53125 44.53125 84.832031 36.769531 82.882812 C 35.589844 86.855469 36.59375 93.679688 36.59375 93.679688 C 36.59375 93.679688 35.066406 96.777344 29.054688 95.644531 C 23.929688 94.675781 24.0625 91.535156 24.0625 91.535156 C 24.0625 91.535156 22.75 85.15625 23.90625 79.539062 C 16.519531 77.5625 10.246094 75.789062 7.9375 75.035156 C 5.15625 74.132812 3.152344 72.871094 1.710938 71.464844 C 1.605469 72.023438 1.511719 74.277344 1.421875 74.8125 C -3.816406 106.507812 7.050781 120.160156 7.820312 123.039062 C 8.855469 126.914062 28.71875 135.039062 47.894531 140.992188 C 59.015625 144.445312 71.433594 143.777344 76.367188 143.476562 L 76.726562 143.457031 C 77.511719 131.203125 79.648438 99.300781 80.695312 79.78125 C 79.035156 86.949219 65.113281 88.601562 55.730469 87.140625 Z M 114.488281 92.269531 C 114.277344 85.503906 114.089844 79.984375 114.003906 78.925781 C 113.847656 77.085938 113.730469 73.574219 113.65625 69.730469 C 112.886719 61.617188 110.425781 52.90625 108.320312 48.378906 C 104.785156 40.757812 94.511719 50.316406 91.609375 56.335938 C 88.605469 62.570312 85.761719 134.410156 85.484375 141.53125 C 92.65625 139.945312 102.933594 137.664062 104.191406 135.984375 C 106.859375 132.433594 108.304688 128.992188 108.972656 126.066406 C 109.414062 124.117188 115.347656 122.292969 115.347656 122.292969 C 115.347656 122.292969 114.929688 106.796875 114.546875 94.292969 L 114.445312 94.621094 C 114.445312 94.625 114.472656 93.761719 114.488281 92.269531 Z M 114.488281 92.269531 "/>
<path style=" stroke:none;fill-rule:nonzero;fill:rgb(100%,100%,100%);fill-opacity:1;" d="M 140.792969 61.03125 C 140.792969 61.03125 139.273438 45.632812 138.929688 42.640625 C 138.09375 35.414062 130.425781 12.171875 104.28125 29.980469 L 111.207031 36.402344 C 111.207031 36.402344 128.925781 22.871094 129.59375 55.113281 C 129.648438 57.839844 129.859375 61.652344 131.792969 84.59375 C 133.929688 109.957031 122.257812 110.097656 122.257812 110.097656 L 122.785156 120.882812 C 122.785156 120.882812 127.121094 119.921875 131.597656 118.320312 C 137.929688 116.050781 144 106.558594 144 92.640625 C 143.992188 87.136719 140.792969 61.03125 140.792969 61.03125 Z M 49.246094 17.980469 L 55.023438 17.226562 L 55.023438 13.070312 L 56.136719 9.667969 C 56.136719 9.667969 50.800781 11.746094 49.246094 13.824219 C 47.6875 15.902344 47.019531 17.039062 47.019531 17.980469 C 47.019531 18.925781 49.246094 17.980469 49.246094 17.980469 Z M 49.246094 17.980469 "/>
</g>
</svg>
